# xmcd
#
# Track frame offsets:
#	150
#	16613
#	45260
#	58049
#	78044
#	96926
#	120926
#	136213
#	159823
#	179536
#	201128
#	219327
#	233893
#	250313
#
# Disc length: 3569
#
# Revision: 1
# Processed by: cddbd v1.5.1PL0 Copyright (c) Steve Scherf et al.
# Submitted via: dBpowerAMP V4.0
# Normalized: r0:TDELIM( - )
#
DISCID=a40def0e
DTITLE=Various Artist - On the wings 28-2
DYEAR=1900
DGENRE=Acid Punk
TTITLE0=TI - Bring Em Out
TTITLE1=Uniting Nations - Out Of Touch (Extended Version)
TTITLE2=Xink - Oh Ho
TTITLE3=Xzibit - Hey Now (Mean Muggin)
TTITLE4=De Pfaffs - Alle dagen kerstmis
TTITLE5=Eminem - Mosh
TTITLE6=Estelle - Free
TTITLE7=Freestylers - Get A Life
TTITLE8=Green Day - Boulevard of Broken Dreams
TTITLE9=Greens Keepers - Keep It Down
TTITLE10=Leki - Latin Lover
TTITLE11=Lemon Jelly - Stay with you
TTITLE12=Ronny Mosuse - Kom bij mij
TTITLE13=Trijntje Oosterhuis - Merry Christmas Baby
EXTD=
EXTT0=
EXTT1=
EXTT2=
EXTT3=
EXTT4=
EXTT5=
EXTT6=
EXTT7=
EXTT8=
EXTT9=
EXTT10=
EXTT11=
EXTT12=
EXTT13=
PLAYORDER=
